<svg width="32" height="32" viewBox="0 0 32 32" fill="none" xmlns="http://www.w3.org/2000/svg">
<path d="M31.5 16C31.5 24.5604 24.5604 31.5 16 31.5C7.43959 31.5 0.5 24.5604 0.5 16C0.5 7.43959 7.43959 0.5 16 0.5C24.5604 0.5 31.5 7.43959 31.5 16Z" stroke="white"/>
<path d="M18.9774 16.8155L19.3644 14.301H16.9437V12.6699C16.9437 11.982 17.2819 11.3107 18.3661 11.3107H19.4667V9.1699C19.4667 9.1699 18.4679 9 17.5129 9C15.5192 9 14.2161 10.2043 14.2161 12.3845V14.301H12V16.8155H14.2161V22.8943C15.1198 23.0352 16.04 23.0352 16.9437 22.8943V16.8155H18.9774Z" fill="white"/>
</svg>
