<svg width="32" height="32" viewBox="0 0 32 32" fill="none" xmlns="http://www.w3.org/2000/svg">
<path d="M31.5 16C31.5 24.5604 24.5604 31.5 16 31.5C7.43959 31.5 0.5 24.5604 0.5 16C0.5 7.43959 7.43959 0.5 16 0.5C24.5604 0.5 31.5 7.43959 31.5 16Z" stroke="#333333"/>
<path fill-rule="evenodd" clip-rule="evenodd" d="M13.5618 15.186V21H11.0151V13.6632H13.5618V15.186ZM12.2834 12.5697C11.5749 12.5697 11 11.9945 11 11.2846C11 10.5745 11.5749 10 12.2834 10C12.9929 10 13.5672 10.5746 13.5672 11.2846C13.5672 11.9945 12.9929 12.5697 12.2834 12.5697ZM21.9856 16.9981V21H19.7915V17.4363C19.7915 16.5829 19.6992 15.4854 18.5313 15.4854C17.3456 15.4854 17.1664 16.4144 17.1664 17.3747V21H15.0507V13.6632H17.0881V14.6441H17.1098C17.4136 14.0948 18.1581 13.6625 19.2667 13.6625C21.1345 13.6625 21.7692 14.5469 21.9429 15.9307C21.9841 16.2554 22 16.6058 22 16.9981H21.9856Z" fill="#333333"/>
</svg>
