<svg width="28" height="20" viewBox="0 0 28 20" fill="none" xmlns="http://www.w3.org/2000/svg">
<path d="M0.666016 2.00008C0.666016 1.2637 1.26297 0.666748 1.99935 0.666748H25.9993C26.7357 0.666748 27.3327 1.2637 27.3327 2.00008C27.3327 2.73646 26.7357 3.33342 25.9993 3.33342H1.99935C1.26297 3.33342 0.666016 2.73646 0.666016 2.00008Z" fill="#57195C"/>
<path d="M0.666016 10.0431C0.666016 9.30667 1.26297 8.70972 1.99935 8.70972H25.9993C26.7357 8.70972 27.3327 9.30667 27.3327 10.0431C27.3327 10.7794 26.7357 11.3764 25.9993 11.3764H1.99935C1.26297 11.3764 0.666016 10.7794 0.666016 10.0431Z" fill="#57195C"/>
<path d="M1.99935 16.7527C1.26297 16.7527 0.666016 17.3496 0.666016 18.086C0.666016 18.8224 1.26297 19.4194 1.99935 19.4194H25.9993C26.7357 19.4194 27.3327 18.8224 27.3327 18.086C27.3327 17.3496 26.7357 16.7527 25.9993 16.7527H1.99935Z" fill="#57195C"/>
</svg>
