<svg width="32" height="32" viewBox="0 0 32 32" fill="none" xmlns="http://www.w3.org/2000/svg">
<path d="M2.66602 8.00008C2.66602 7.2637 3.26297 6.66675 3.99935 6.66675H27.9993C28.7357 6.66675 29.3327 7.2637 29.3327 8.00008C29.3327 8.73646 28.7357 9.33342 27.9993 9.33342H3.99935C3.26297 9.33342 2.66602 8.73646 2.66602 8.00008Z" fill="white"/>
<path d="M2.66602 16.0431C2.66602 15.3067 3.26297 14.7097 3.99935 14.7097H27.9993C28.7357 14.7097 29.3327 15.3067 29.3327 16.0431C29.3327 16.7794 28.7357 17.3764 27.9993 17.3764H3.99935C3.26297 17.3764 2.66602 16.7794 2.66602 16.0431Z" fill="white"/>
<path d="M3.99935 22.7527C3.26297 22.7527 2.66602 23.3496 2.66602 24.086C2.66602 24.8224 3.26297 25.4194 3.99935 25.4194H27.9993C28.7357 25.4194 29.3327 24.8224 29.3327 24.086C29.3327 23.3496 28.7357 22.7527 27.9993 22.7527H3.99935Z" fill="white"/>
</svg>
