<svg width="105" height="43" viewBox="0 0 415 171" fill="none" xmlns="http://www.w3.org/2000/svg">
<g id="murex logo_white-01 1">
<g id="Group">
<g id="Group_2">
<g id="Group_3">
<path id="Vector" d="M120.957 23.9963C119.222 27.0363 118.068 29.1473 117.497 30.3293L114.772 36.1733L111.649 42.5993C111.486 42.9663 110.628 44.8833 109.077 48.3503C108.444 49.7793 107.893 50.9513 107.424 51.8693C107.158 52.4203 106.975 52.8083 106.873 53.0323C106.47 53.9913 106.036 54.4703 105.573 54.4703C105.089 54.4703 104.625 53.9703 104.183 52.9713C104.102 52.7873 103.816 52.2263 103.327 51.2883L102.714 50.0033L91.23 25.1603L90.527 40.3203C90.466 41.5663 90.436 44.0573 90.436 47.7933C90.436 51.3873 91.698 53.3783 94.224 53.7663C95.466 53.9663 96.088 54.2673 96.088 54.6673C96.088 55.1273 95.793 55.3583 95.204 55.3583C94.817 55.3583 94.442 55.3373 94.076 55.2963C91.8 55.0913 90.042 54.9903 88.803 54.9903C87.319 54.9903 85.896 55.0813 84.535 55.2653C84.128 55.3273 83.813 55.3573 83.59 55.3573C82.98 55.3573 82.676 55.1373 82.676 54.6993C82.676 54.3603 82.92 54.1403 83.409 54.0403C84.895 53.6933 85.934 52.9983 86.525 51.9563C87.116 50.9133 87.472 49.1363 87.594 46.6223L88.022 37.7343C88.328 31.2983 88.48 27.2313 88.48 25.5353C88.48 21.8983 88.001 19.2063 87.044 17.4593C86.087 15.7123 84.488 14.6343 82.248 14.2253C81.637 14.1263 81.332 13.8763 81.332 13.4763C81.332 13.0373 81.586 12.8163 82.095 12.8163C82.278 12.8163 82.613 12.8373 83.103 12.8783C83.387 12.9193 84.079 12.9403 85.178 12.9403C86.847 12.9403 87.906 12.9193 88.354 12.8783C88.822 12.8163 89.198 12.7863 89.484 12.7863C90.359 12.7863 91.092 13.4293 91.682 14.7153L92.018 15.4203L104.751 42.9533L106.309 46.1083C106.532 46.6393 106.695 46.9043 106.797 46.9043C106.919 46.9043 107.072 46.7103 107.255 46.3223L107.622 45.4943L107.896 44.8813L122.243 14.0423C122.548 13.3893 122.777 12.9853 122.93 12.8323C123.082 12.6793 123.352 12.6023 123.739 12.6023C123.902 12.6023 124.35 12.6433 125.083 12.7243C125.348 12.7453 125.684 12.7553 126.091 12.7553C127.374 12.7553 128.402 12.7153 129.176 12.6333C129.542 12.6133 129.837 12.5923 130.061 12.5723C130.468 12.5513 130.672 12.7513 130.672 13.1703C130.672 13.5493 130.468 13.7893 130.061 13.8893L128.748 14.2263C127.708 14.4713 126.98 15.1103 126.563 16.1433C126.145 17.1763 125.936 18.8683 125.936 21.2193L126.12 28.6123L126.701 45.2683L126.853 49.1333C126.853 50.6873 127.138 51.8013 127.708 52.4763C128.279 53.1513 129.317 53.6003 130.825 53.8263C131.904 53.9853 132.444 54.2553 132.444 54.6353C132.444 55.0353 132.068 55.2343 131.316 55.2343C131.093 55.2343 130.838 55.2243 130.554 55.2043L128.176 54.9593C127.383 54.8773 126.53 54.8363 125.615 54.8363C124.985 54.8363 123.989 54.8813 122.627 54.9723C120.514 55.0863 119.294 55.1423 118.969 55.1423C118.379 55.1423 118.085 54.9633 118.085 54.6053C118.085 54.2863 118.339 54.0573 118.849 53.9173C120.05 53.5913 120.854 53.0593 121.262 52.3243C121.669 51.5873 121.874 50.3003 121.874 48.4603L121.751 43.4633L120.957 23.9963Z" fill="white"/>
<path id="Vector_2" d="M178.405 37.1781V21.3261C178.405 18.7761 178.038 16.9241 177.305 15.7711C176.572 14.6191 175.329 13.9611 173.578 13.7971C172.987 13.7381 172.692 13.5181 172.692 13.1391C172.692 12.7001 172.895 12.4911 173.301 12.5111C173.748 12.5321 174.398 12.6141 175.251 12.7561C176.023 12.8791 176.947 12.9401 178.024 12.9401C180.299 12.9401 181.7 12.9091 182.229 12.8481C182.94 12.7871 183.386 12.7561 183.57 12.7561C183.955 12.7561 184.149 12.9351 184.149 13.2941C184.149 13.5941 183.935 13.8331 183.507 14.0121C182.264 14.5221 181.46 15.2371 181.093 16.1561C180.727 17.0741 180.543 18.8101 180.543 21.3621V36.5221C180.543 42.0961 179.433 46.3841 177.213 49.3861C175.808 51.2841 173.796 52.8011 171.179 53.9341C168.562 55.0671 165.766 55.6341 162.793 55.6341C159.33 55.6341 156.214 54.9601 153.444 53.6121C150.674 52.2641 148.648 50.4371 147.364 48.1301C145.918 45.4761 145.195 42.0151 145.195 37.7471V22.1891L145.134 20.4431C145.134 18.2591 144.833 16.7531 144.233 15.9261C143.632 15.0991 142.425 14.5531 140.613 14.2871C140.062 14.2081 139.787 13.9981 139.787 13.6581C139.787 13.1791 140.174 12.9401 140.948 12.9401C141.457 12.9401 142.16 12.9601 143.056 13.0011C143.993 13.0621 144.676 13.0931 145.104 13.0931L147.456 13.0621H149.778C150.022 13.0621 150.593 13.0221 151.489 12.9401C152.242 12.8791 152.761 12.8481 153.047 12.8481C153.515 12.8481 153.75 13.0071 153.75 13.3261C153.75 13.7041 153.424 13.9531 152.772 14.0731C151.591 14.3381 150.801 14.8531 150.404 15.6191C150.007 16.3841 149.808 17.7561 149.808 19.7351L149.869 21.7541V37.1781C149.869 42.4421 150.685 46.1961 152.316 48.4401C154.62 51.6231 158.484 53.2141 163.907 53.2141C168.76 53.2141 172.39 51.8831 174.796 49.2201C177.202 46.5581 178.405 42.5441 178.405 37.1781Z" fill="white"/>
<path id="Vector_3" d="M215.14 33.8493L223.572 46.3123L224.549 47.7783C227.156 51.6073 229.561 53.5923 231.76 53.7353L232.737 53.7973C233.104 53.8183 233.278 53.9633 233.258 54.2353C233.237 54.5473 232.783 54.8273 231.897 55.0773C231.012 55.3263 230.008 55.4513 228.889 55.4513C227.055 55.4513 225.41 54.9463 223.955 53.9353C222.498 52.9243 221.016 51.2753 219.508 48.9893L211.901 37.3513L211.473 36.6773C210.985 35.8403 210.19 35.4213 209.09 35.4213H205.028L204.356 35.5443C204.11 35.6873 203.989 36.0163 203.989 36.5273V46.1153L204.018 47.3433C204.018 49.1053 204.106 50.3093 204.278 50.9543C204.452 51.6003 204.864 52.1783 205.516 52.6903C206.391 53.3873 207.746 53.8273 209.58 54.0113C210.312 54.0913 210.689 54.3213 210.709 54.7003C210.75 55.0983 210.414 55.2983 209.701 55.2983C209.416 55.2983 208.814 55.2523 207.898 55.1623C207.063 55.0713 205.77 55.0253 204.018 55.0253L201.086 54.9923L199.497 55.0223C198.805 55.0223 197.971 55.0733 196.992 55.1753C196.197 55.2573 195.646 55.2983 195.342 55.2983C194.832 55.2983 194.578 55.0893 194.578 54.6703C194.578 54.3723 194.832 54.1723 195.342 54.0733C196.971 53.7673 198.04 53.0253 198.55 51.8493C199.059 50.6733 199.315 48.3573 199.315 44.9013V22.8753L199.252 19.6853C199.252 16.4963 198.143 14.7163 195.922 14.3483L194.486 14.1333C193.834 14.0143 193.509 13.7743 193.509 13.4143C193.509 12.9963 193.855 12.7863 194.547 12.7863C194.709 12.7863 195.422 12.8273 196.685 12.9083C197.418 12.9703 198.326 13.0003 199.404 13.0003C200.342 13.0003 201.941 12.9293 204.203 12.7863C205.832 12.6843 207.267 12.6333 208.509 12.6333C213.193 12.6333 216.728 13.5173 219.111 15.2853C221.494 17.0533 222.685 19.6843 222.685 23.1793C222.685 27.7793 220.169 31.3343 215.14 33.8493ZM206.162 33.1843H209.62C212.294 33.1843 214.395 32.4473 215.929 30.9723C217.458 29.4973 218.224 27.4793 218.224 24.9183C218.224 21.9483 217.183 19.5053 215.101 17.5893C213.019 15.6743 210.367 14.7163 207.141 14.7163C205.938 14.7163 205.106 14.9163 204.647 15.3153C204.188 15.7143 203.958 16.4373 203.958 17.4823L203.989 18.4963V30.9723C203.989 31.9353 204.118 32.5443 204.372 32.8003C204.625 33.0573 205.222 33.1843 206.162 33.1843Z" fill="white"/>
<path id="Vector_4" d="M249.397 17.819V30.175C249.397 31.118 249.483 31.687 249.657 31.882C249.831 32.076 250.354 32.173 251.231 32.173H255.936C258.075 32.173 259.764 32.051 261.006 31.806C262.106 31.581 262.819 31.285 263.145 30.918C263.471 30.55 263.766 29.693 264.032 28.345C264.136 27.835 264.397 27.59 264.813 27.61C265.209 27.631 265.407 27.905 265.407 28.435C265.407 28.577 265.395 28.801 265.374 29.107C265.19 31.083 265.103 32.885 265.103 34.514C265.103 35.756 265.164 36.989 265.287 38.211C265.326 38.618 265.348 38.914 265.348 39.097C265.348 39.606 265.149 39.861 264.754 39.861C264.316 39.861 264.055 39.636 263.973 39.187L263.789 38.329C263.545 36.962 263.057 36.032 262.326 35.542C261.594 35.052 260.353 34.807 258.607 34.807H251.869C250.873 34.807 250.207 34.91 249.873 35.114C249.537 35.319 249.369 35.728 249.369 36.341L249.398 37.354V48.644C249.398 50.382 249.709 51.466 250.33 51.896C250.949 52.326 252.521 52.54 255.043 52.54C263.035 52.54 268.172 50.733 270.449 47.119C270.679 46.772 270.908 46.589 271.138 46.568C271.513 46.548 271.702 46.812 271.702 47.361C271.702 48.684 270.958 50.261 269.47 52.092C267.679 54.29 265.417 55.388 262.689 55.388C262.097 55.388 261.302 55.347 260.306 55.266C256.415 54.898 253.197 54.715 250.65 54.715C247.087 54.715 244.572 54.837 243.105 55.082C242.332 55.225 241.8 55.297 241.517 55.297C240.863 55.297 240.538 55.077 240.538 54.637C240.538 54.298 240.802 54.058 241.333 53.918L242.493 53.581C243.96 53.172 244.692 51.74 244.692 49.286L244.723 47.293V21.374C244.723 18.45 244.403 16.482 243.76 15.469C243.119 14.457 241.871 13.95 240.018 13.95C239.426 13.95 239.131 13.761 239.131 13.381C239.131 12.821 239.59 12.542 240.506 12.542C241.016 12.542 241.697 12.593 242.553 12.694C245.467 13.022 248.969 13.185 253.063 13.185C255.549 13.185 257.749 13.144 259.663 13.062L264.003 12.848C265.204 12.807 265.937 12.766 266.202 12.725C266.751 12.644 267.157 12.603 267.423 12.603C268.095 12.603 268.433 12.898 268.433 13.487C268.433 13.671 268.402 13.905 268.341 14.19C268.278 14.475 268.196 15.288 268.095 16.631L267.974 18.431C267.87 19.611 267.767 20.349 267.663 20.644C267.558 20.939 267.329 21.097 266.977 21.117C266.582 21.138 266.385 20.831 266.385 20.198V19.402C266.385 18.749 266.262 18.126 266.018 17.534C265.631 16.615 264.848 16.003 263.67 15.696C262.49 15.39 260.326 15.236 257.174 15.236H252.387C251.125 15.236 250.313 15.396 249.946 15.714C249.581 16.031 249.397 16.733 249.397 17.819Z" fill="white"/>
<path id="Vector_5" d="M300.72 33.827L308.552 45.649C310.55 48.671 312.171 50.877 313.415 52.264C314.188 53.121 315.308 53.694 316.774 53.979C317.489 54.119 317.844 54.369 317.844 54.7271C317.844 55.0861 317.571 55.265 317.02 55.265C316.756 55.265 316.35 55.2281 315.801 55.154C314.887 55.024 313.363 54.959 311.229 54.959L309.674 54.9291L305.711 55.2351C305.182 55.3161 304.764 55.357 304.461 55.357C303.932 55.357 303.668 55.1781 303.668 54.8181C303.668 54.439 304.023 54.159 304.738 53.979C305.877 53.673 306.447 53.038 306.447 52.077C306.447 51.4841 306.08 50.635 305.345 49.531L297.331 37.4421C296.964 36.8901 296.708 36.614 296.565 36.614C296.381 36.614 295.934 37.1561 295.221 38.2401C293.391 41.0011 292.354 42.5451 292.112 42.8731L289.059 47.229C287.534 49.377 286.75 50.973 286.709 52.015C286.648 53.141 287.137 53.764 288.176 53.8871L289.764 54.071C290.274 54.1311 290.53 54.3811 290.53 54.819C290.53 55.1781 290.284 55.357 289.794 55.357C289.468 55.357 289.04 55.3161 288.509 55.2351C287.345 55.0511 286.079 54.959 284.712 54.959C283.2 54.959 281.556 55.034 279.78 55.182C279.229 55.237 278.831 55.265 278.587 55.265C277.933 55.265 277.587 55.0821 277.546 54.7141C277.526 54.3881 277.78 54.1631 278.308 54.0401C279.673 53.694 280.785 53.174 281.638 52.481C282.495 51.788 283.544 50.5651 284.786 48.8111C286.03 47.0381 287.081 45.56 287.936 44.377C290.528 40.83 292.079 38.6891 292.588 37.9561C293.342 36.8341 293.811 36.1521 293.994 35.9071C294.566 35.1121 294.842 34.562 294.82 34.2561C294.8 33.9701 294.617 33.5501 294.269 32.9981L293.658 31.986L286.928 22.0171C284.623 18.5611 282.998 16.3991 282.051 15.5301C281.104 14.6601 279.817 14.1241 278.186 13.9191C277.372 13.8201 276.963 13.5801 276.963 13.2011C276.963 12.8021 277.33 12.6021 278.061 12.6021C279.545 12.6021 281.811 12.7151 284.862 12.9391C285.51 13.0021 286.03 13.0311 286.417 13.0311C286.659 13.0311 287.788 12.9481 289.8 12.7811C290.187 12.7441 290.573 12.7251 290.96 12.7251C291.61 12.7251 291.935 12.9451 291.935 13.3831C291.935 13.7021 291.611 13.9121 290.958 14.0121C289.817 14.1951 289.247 14.7461 289.247 15.6651C289.247 16.2781 289.696 17.258 290.593 18.6051L297.751 29.355C297.872 29.539 297.985 29.6311 298.087 29.6311C298.21 29.6311 298.444 29.387 298.788 28.897L305.104 19.9411L306.141 18.5661C306.895 17.5471 307.27 16.6911 307.27 15.9981C307.27 15.0611 306.813 14.4701 305.897 14.2251L304.827 13.9501C304.298 13.8041 304.034 13.5421 304.034 13.1651C304.034 12.8511 304.259 12.7051 304.708 12.7251C304.993 12.7431 305.39 12.7701 305.903 12.8061C306.78 12.8951 308.29 12.9391 310.434 12.9391C311.579 12.9391 312.68 12.8851 313.743 12.7741C314.335 12.7191 314.815 12.6821 315.182 12.6641C315.713 12.6441 315.979 12.8041 315.979 13.1431C315.979 13.5431 315.713 13.8431 315.184 14.0421L313.686 14.6251C312.221 15.1771 310.59 16.701 308.799 19.196L300.779 30.3631C300.166 31.2221 299.861 31.815 299.861 32.142C299.861 32.429 299.972 32.7351 300.197 33.0611L300.72 33.827Z" fill="white"/>
<path id="Vector_6" d="M93.063 84.315V109.876L93.033 112.851L93.124 115.425C93.348 117.898 94.265 119.337 95.874 119.747C96.994 120.054 97.839 120.206 98.41 120.206C99.021 120.206 99.336 120.387 99.357 120.745C99.397 121.265 99.041 121.523 98.288 121.523C97.941 121.523 97.259 121.482 96.241 121.4C95.588 121.359 94.53 121.338 93.063 121.338L90.894 121.277L88.511 121.308C87.309 121.308 86.403 121.348 85.792 121.43C84.998 121.533 84.417 121.583 84.05 121.583C83.521 121.583 83.256 121.384 83.256 120.983C83.256 120.604 83.592 120.366 84.264 120.265C85.853 120.02 86.938 119.123 87.518 117.572C88.099 116.022 88.389 113.227 88.389 109.187V90.613C88.389 86.329 88.134 83.62 87.625 82.488C87.116 81.356 85.842 80.677 83.806 80.454C83.256 80.411 82.991 80.202 83.012 79.827C83.033 79.346 83.429 79.105 84.203 79.105C84.59 79.105 85.109 79.156 85.761 79.258C87.044 79.442 88.104 79.533 88.938 79.533C90.242 79.533 92.136 79.42 94.621 79.196C95.904 79.094 96.953 79.043 97.768 79.043C102.025 79.043 105.482 80.068 108.141 82.121C110.798 84.172 112.127 86.853 112.127 90.16C112.127 94.162 110.498 97.317 107.239 99.625C104.795 101.34 102.208 102.196 99.479 102.196C98.196 102.196 97.02 102.057 95.95 101.777C94.881 101.498 94.366 101.198 94.407 100.879C94.448 100.635 94.641 100.513 94.986 100.513C95.149 100.513 95.352 100.543 95.596 100.605C96.063 100.749 96.815 100.819 97.852 100.819C100.778 100.819 103.12 100.01 104.877 98.392C106.635 96.774 107.514 94.623 107.514 91.94C107.514 88.848 106.355 86.288 104.039 84.261C101.721 82.233 98.784 81.219 95.228 81.219C94.415 81.219 93.855 81.372 93.551 81.679C93.246 81.986 93.094 82.568 93.094 83.426L93.063 84.315Z" fill="white"/>
<path id="Vector_7" d="M139.023 105.292H127.964C126.456 105.292 125.519 105.415 125.153 105.659C124.786 105.905 124.297 106.723 123.686 108.114L121.682 112.626C120.778 114.692 120.326 116.228 120.326 117.23C120.326 118.192 120.565 118.886 121.043 119.317C121.522 119.748 122.464 120.115 123.869 120.421C124.481 120.54 124.796 120.779 124.817 121.139C124.837 121.477 124.553 121.647 123.964 121.647C123.74 121.647 123.394 121.634 122.927 121.612L120.001 121.44C119.026 121.394 117.899 121.371 116.619 121.371C116.03 121.371 115.573 121.385 115.248 121.414C114.211 121.528 113.643 121.586 113.541 121.586C112.993 121.586 112.718 121.398 112.718 121.021C112.718 120.686 112.891 120.465 113.238 120.361L114.368 120.024C114.775 119.901 115.325 119.406 116.018 118.537C116.71 117.669 117.281 116.766 117.729 115.825L118.615 113.802L134.318 78.8341C134.583 78.2211 134.878 77.9131 135.204 77.9131C135.53 77.9131 135.805 78.2111 136.029 78.8031L149.166 112.541L149.839 114.197C150.796 116.672 151.59 118.211 152.222 118.814C152.852 119.418 154.136 119.892 156.071 120.239C156.702 120.359 157.009 120.609 156.988 120.987C156.967 121.326 156.682 121.495 156.132 121.495C155.949 121.495 155.562 121.475 154.971 121.434C153.912 121.331 152.028 121.281 149.319 121.281C146.488 121.281 144.716 121.342 144.003 121.465C143.576 121.547 143.259 121.588 143.056 121.588C142.526 121.588 142.262 121.379 142.262 120.959C142.262 120.642 142.516 120.432 143.025 120.332L143.973 120.117C144.991 119.912 145.5 119.217 145.5 118.03C145.5 116.946 144.879 114.787 143.637 111.554L142.109 107.503C141.681 106.378 141.345 105.729 141.101 105.554C140.856 105.378 140.164 105.292 139.023 105.292ZM139.391 100.36L134.594 88.2321L134.35 87.5881C134.105 86.9351 133.84 86.5981 133.556 86.5771C133.412 86.5571 133.25 86.7521 133.067 87.1591L127.109 100.42C126.844 100.992 126.712 101.371 126.712 101.554C126.712 102.086 127.18 102.351 128.117 102.351L128.942 102.381H138.169C139.187 102.381 139.696 102.125 139.696 101.614C139.696 101.472 139.645 101.237 139.543 100.91L139.391 100.36Z" fill="white"/>
<path id="Vector_8" d="M183.824 100.29L192.256 112.753L193.234 114.22C195.84 118.048 198.244 120.033 200.445 120.176L201.422 120.239C201.789 120.26 201.961 120.405 201.942 120.676C201.921 120.989 201.468 121.268 200.583 121.518C199.696 121.768 198.694 121.893 197.573 121.893C195.741 121.893 194.095 121.387 192.639 120.376C191.182 119.365 189.701 117.716 188.194 115.43L180.586 103.792L180.158 103.118C179.669 102.281 178.875 101.862 177.775 101.862H173.712L173.04 101.984C172.795 102.128 172.673 102.457 172.673 102.967V112.556L172.703 113.784C172.703 115.546 172.79 116.75 172.963 117.394C173.136 118.04 173.549 118.619 174.201 119.13C175.076 119.827 176.431 120.267 178.264 120.451C178.997 120.531 179.374 120.761 179.394 121.139C179.435 121.537 179.099 121.738 178.386 121.738C178.101 121.738 177.5 121.692 176.584 121.602C175.748 121.51 174.455 121.464 172.703 121.464L169.771 121.432L168.182 121.461C167.489 121.461 166.655 121.512 165.677 121.614C164.882 121.696 164.332 121.737 164.027 121.737C163.517 121.737 163.263 121.528 163.263 121.109C163.263 120.81 163.517 120.611 164.027 120.511C165.656 120.205 166.725 119.463 167.235 118.287C167.744 117.111 167.999 114.795 167.999 111.339V89.3172L167.937 86.1272C167.937 82.9392 166.827 81.1592 164.607 80.7912L163.172 80.5762C162.519 80.4572 162.194 80.2172 162.194 79.8572C162.194 79.4392 162.54 79.2282 163.233 79.2282C163.395 79.2282 164.108 79.2692 165.371 79.3512C166.104 79.4132 167.011 79.4432 168.09 79.4432C169.027 79.4432 170.626 79.3722 172.887 79.2282C174.516 79.1262 175.952 79.0762 177.195 79.0762C181.879 79.0762 185.413 79.9602 187.796 81.7282C190.179 83.4962 191.37 86.1262 191.37 89.6212C191.369 94.2202 188.854 97.7762 183.824 100.29ZM174.846 99.6252H178.305C180.979 99.6252 183.081 98.8882 184.613 97.4132C186.143 95.9382 186.909 93.9202 186.909 91.3582C186.909 88.3892 185.868 85.9462 183.786 84.0302C181.704 82.1152 179.051 81.1572 175.825 81.1572C174.621 81.1572 173.789 81.3562 173.33 81.7562C172.871 82.1562 172.641 82.8782 172.641 83.9232L172.672 84.9372V97.4132C172.672 98.3762 172.8 98.9852 173.054 99.2412C173.309 99.4982 173.907 99.6252 174.846 99.6252Z" fill="white"/>
<path id="Vector_9" d="M235.13 82.6592H226.546C225.65 82.6592 225.083 82.7822 224.849 83.0272C224.617 83.2722 224.499 83.8762 224.499 84.8382V114.9L224.528 116.097C224.63 118.489 225.964 119.91 228.532 120.36C229.245 120.48 229.6 120.71 229.6 121.048C229.6 121.487 229.315 121.707 228.743 121.707C228.499 121.707 227.999 121.646 227.243 121.523C226.856 121.461 225.938 121.43 224.487 121.43L222.253 121.401L219.866 121.43C219.007 121.43 218.284 121.461 217.692 121.523C216.528 121.646 215.844 121.707 215.639 121.707C215.028 121.707 214.721 121.488 214.721 121.05C214.721 120.732 215.057 120.531 215.731 120.451C217.297 120.247 218.358 119.812 218.907 119.148C219.458 118.483 219.733 117.291 219.733 115.574V85.1752L219.702 84.3762C219.702 83.6402 219.595 83.1692 219.38 82.9662C219.167 82.7612 218.673 82.6582 217.9 82.6582H209.804C208.154 82.6582 206.957 82.9902 206.215 83.6532C205.471 84.3172 204.897 85.5672 204.488 87.4042C204.304 88.2002 204.029 88.5882 203.664 88.5682C203.297 88.5482 203.113 88.2732 203.113 87.7442C203.113 87.3162 203.236 86.5332 203.48 85.3942C203.785 83.9282 203.939 82.7192 203.939 81.7622C203.939 80.8252 204.044 80.2112 204.257 79.9142C204.472 79.6192 204.925 79.4712 205.62 79.4712H238.52C239.639 79.4712 240.319 79.5942 240.551 79.8382C240.787 80.0822 240.905 80.8052 240.905 82.0042C240.905 83.2042 240.956 84.0782 241.057 84.6272C241.159 85.3192 241.219 85.8172 241.241 86.1212C241.261 86.7322 241.048 87.0572 240.598 87.0982C240.233 87.1192 239.989 86.8032 239.866 86.1492C239.6 84.7002 239.173 83.7572 238.583 83.3162C237.991 82.8782 236.841 82.6592 235.13 82.6592Z" fill="white"/>
<path id="Vector_10" d="M285.155 91.202V116.868C285.155 119.176 285.102 120.579 285.001 121.079C284.9 121.579 284.614 121.819 284.146 121.799C283.841 121.778 283.607 121.687 283.445 121.524L282.771 120.727L257.017 91.203L256.712 90.867C256.589 90.744 256.446 90.682 256.284 90.682C255.895 90.682 255.702 91.142 255.702 92.062V112.849L255.673 114.137L255.763 116.313C255.906 117.662 256.253 118.592 256.802 119.103C257.353 119.615 258.431 119.994 260.042 120.238C260.714 120.317 261.05 120.578 261.05 121.016C261.05 121.415 260.835 121.617 260.407 121.617C260.122 121.617 259.817 121.596 259.491 121.555C259.266 121.513 258.38 121.452 256.833 121.37L253.718 121.218L252.251 121.273C251.456 121.273 250.702 121.32 249.989 121.412C249.46 121.486 249.083 121.524 248.86 121.524C248.329 121.524 248.044 121.335 248.003 120.955C247.983 120.656 248.269 120.406 248.86 120.207C250.571 119.615 251.725 118.824 252.327 117.832C252.927 116.842 253.227 115.242 253.227 113.035V92.191C253.227 88.657 252.666 85.872 251.547 83.84C250.426 81.807 248.807 80.647 246.69 80.361C246.139 80.283 245.864 80.053 245.864 79.674C245.864 79.295 246.089 79.106 246.538 79.106C246.638 79.106 246.802 79.117 247.026 79.136L248.278 79.167L250.325 79.228L250.815 79.199C251.303 79.178 251.678 79.168 251.946 79.168C252.454 79.168 252.964 79.464 253.471 80.056L281.578 111.969C282.027 112.48 282.312 112.725 282.433 112.703C282.636 112.683 282.749 112.49 282.769 112.121V96.961L282.8 92.827L282.433 85.782C282.23 84.047 281.726 82.817 280.921 82.092C280.116 81.366 278.665 80.831 276.567 80.484C275.975 80.384 275.68 80.135 275.68 79.736C275.68 79.356 275.975 79.168 276.567 79.168C276.833 79.168 277.258 79.195 277.85 79.252C279.256 79.399 281.139 79.474 283.502 79.474C284.764 79.474 285.773 79.412 286.527 79.289C287.177 79.168 287.675 79.106 288.023 79.106C288.552 79.106 288.837 79.32 288.878 79.75C288.899 80.016 288.694 80.209 288.267 80.332C287.025 80.638 286.204 81.148 285.808 81.863C285.412 82.578 285.212 83.914 285.212 85.874V89.182L285.155 91.202Z" fill="white"/>
<path id="Vector_11" d="M308.813 84.2609V96.6159C308.813 97.5589 308.899 98.1279 309.073 98.3229C309.245 98.5169 309.77 98.6139 310.645 98.6139H315.35C317.489 98.6139 319.178 98.4919 320.42 98.2469C321.522 98.0219 322.234 97.7259 322.561 97.3589C322.885 96.9909 323.182 96.1329 323.446 94.7859C323.55 94.2759 323.811 94.0309 324.227 94.0519C324.623 94.0729 324.821 94.3469 324.821 94.8759C324.821 95.0189 324.811 95.2419 324.788 95.5479C324.606 97.5249 324.517 99.3259 324.517 100.955C324.517 102.197 324.578 103.431 324.701 104.652C324.74 105.059 324.762 105.355 324.762 105.538C324.762 106.048 324.565 106.302 324.168 106.302C323.73 106.302 323.469 106.077 323.387 105.628L323.203 104.771C322.959 103.404 322.471 102.474 321.74 101.984C321.008 101.494 319.769 101.249 318.021 101.249H311.283C310.287 101.249 309.621 101.353 309.287 101.557C308.951 101.762 308.783 102.17 308.783 102.784L308.814 103.798V115.087C308.814 116.825 309.123 117.909 309.744 118.339C310.363 118.77 311.935 118.984 314.457 118.984C322.449 118.984 327.586 117.177 329.863 113.563C330.093 113.216 330.322 113.033 330.552 113.011C330.927 112.991 331.116 113.255 331.116 113.804C331.116 115.128 330.372 116.704 328.884 118.535C327.093 120.733 324.831 121.831 322.103 121.831C321.511 121.831 320.716 121.79 319.72 121.709C315.829 121.341 312.611 121.158 310.066 121.158C306.502 121.158 303.986 121.28 302.519 121.525C301.746 121.668 301.214 121.74 300.931 121.74C300.279 121.74 299.952 121.52 299.952 121.08C299.952 120.741 300.216 120.501 300.747 120.361L301.907 120.024C303.374 119.615 304.108 118.182 304.108 115.729L304.139 113.736V87.8149C304.139 84.8919 303.817 82.9229 303.174 81.9099C302.533 80.8979 301.285 80.3909 299.434 80.3909C298.84 80.3909 298.545 80.2019 298.545 79.8219C298.545 79.2619 299.004 78.9829 299.92 78.9829C300.43 78.9829 301.113 79.0339 301.967 79.1349C304.881 79.4629 308.383 79.6249 312.479 79.6249C314.963 79.6249 317.163 79.5839 319.077 79.5019L323.417 79.2879C324.618 79.2469 325.353 79.2059 325.616 79.1649C326.165 79.0839 326.573 79.0429 326.837 79.0429C327.509 79.0429 327.847 79.3379 327.847 79.9279C327.847 80.1119 327.816 80.3459 327.755 80.6309C327.694 80.9149 327.612 81.7289 327.509 83.0709L327.388 84.8709C327.284 86.0499 327.181 86.7879 327.077 87.0829C326.973 87.3779 326.743 87.5359 326.391 87.5569C325.996 87.5779 325.799 87.2709 325.799 86.6379V85.8409C325.799 85.1889 325.676 84.5659 325.434 83.9739C325.045 83.0539 324.264 82.4429 323.084 82.1359C321.904 81.8289 319.74 81.6749 316.588 81.6749H311.801C310.539 81.6749 309.727 81.8349 309.362 82.1539C308.995 82.4719 308.813 83.1749 308.813 84.2609Z" fill="white"/>
<path id="Vector_12" d="M360.915 100.29L369.347 112.753L370.324 114.22C372.931 118.048 375.336 120.033 377.535 120.176L378.512 120.239C378.879 120.26 379.053 120.405 379.033 120.676C379.012 120.989 378.558 121.268 377.672 121.518C376.787 121.768 375.783 121.893 374.664 121.893C372.83 121.893 371.185 121.387 369.73 120.376C368.273 119.365 366.791 117.716 365.283 115.43L357.676 103.792L357.248 103.118C356.76 102.281 355.965 101.862 354.865 101.862H350.802L350.13 101.984C349.884 102.128 349.763 102.457 349.763 102.967V112.556L349.792 113.784C349.792 115.546 349.88 116.75 350.052 117.394C350.226 118.04 350.638 118.619 351.29 119.13C352.165 119.827 353.52 120.267 355.354 120.451C356.086 120.531 356.463 120.761 356.483 121.139C356.524 121.537 356.188 121.738 355.475 121.738C355.19 121.738 354.588 121.692 353.672 121.602C352.836 121.51 351.543 121.464 349.791 121.464L346.859 121.432L345.271 121.461C344.578 121.461 343.744 121.512 342.765 121.614C341.97 121.696 341.419 121.737 341.115 121.737C340.605 121.737 340.351 121.528 340.351 121.109C340.351 120.81 340.605 120.611 341.115 120.511C342.744 120.205 343.814 119.463 344.324 118.287C344.832 117.111 345.088 114.795 345.088 111.339V89.3172L345.025 86.1272C345.025 82.9392 343.916 81.1592 341.695 80.7912L340.259 80.5762C339.607 80.4572 339.282 80.2172 339.282 79.8572C339.282 79.4392 339.628 79.2282 340.321 79.2282C340.483 79.2282 341.196 79.2692 342.458 79.3512C343.192 79.4132 344.099 79.4432 345.177 79.4432C346.115 79.4432 347.714 79.3722 349.976 79.2282C351.605 79.1262 353.04 79.0762 354.283 79.0762C358.967 79.0762 362.502 79.9602 364.885 81.7282C367.268 83.4962 368.459 86.1262 368.459 89.6212C368.46 94.2202 365.944 97.7762 360.915 100.29ZM351.937 99.6252H355.396C358.07 99.6252 360.171 98.8882 361.705 97.4132C363.234 95.9382 364 93.9202 364 91.3582C364 88.3892 362.959 85.9462 360.877 84.0302C358.795 82.1152 356.143 81.1572 352.916 81.1572C351.713 81.1572 350.881 81.3562 350.422 81.7562C349.963 82.1562 349.733 82.8782 349.733 83.9232L349.764 84.9372V97.4132C349.764 98.3762 349.893 98.9852 350.147 99.2412C350.399 99.4982 350.997 99.6252 351.937 99.6252Z" fill="white"/>
<path id="Vector_13" d="M398.534 78.646C400.712 78.646 402.555 78.963 404.063 79.595L406.17 80.484C406.354 80.566 406.537 80.607 406.721 80.607C406.967 80.607 407.209 80.504 407.453 80.3L407.883 79.933C407.944 79.851 408.055 79.81 408.219 79.81C408.727 79.79 408.983 80.29 408.983 81.312C408.983 81.659 409.114 82.689 409.379 84.405L409.867 87.558C409.971 88.232 410.021 88.652 410.021 88.814C410.021 89.448 409.802 89.763 409.367 89.763C409.035 89.763 408.701 89.273 408.371 88.289C407.639 86.076 406.152 84.252 403.908 82.819C401.664 81.386 399.162 80.668 396.4 80.668C394.207 80.668 392.375 81.318 390.904 82.615C389.431 83.913 388.695 85.533 388.695 87.474C388.695 89.191 389.174 90.673 390.131 91.92C390.963 92.982 391.873 93.759 392.86 94.25C393.847 94.741 396.272 95.63 400.137 96.917C407.662 99.386 411.426 103.437 411.426 109.067C411.426 112.882 410.041 116.005 407.272 118.432C404.501 120.861 400.948 122.075 396.61 122.075C395.04 122.075 393.315 121.85 391.43 121.401C389.545 120.952 388.166 120.43 387.289 119.838C386.924 119.594 386.68 119.333 386.557 119.057C386.436 118.782 386.25 118.073 386.008 116.928C385.967 116.766 385.711 115.836 385.242 114.141C384.713 112.305 384.449 110.997 384.449 110.221C384.449 109.608 384.656 109.313 385.072 109.333C385.445 109.354 385.777 109.855 386.068 110.838C386.8 113.377 388.343 115.507 390.699 117.227C393.054 118.948 395.615 119.807 398.377 119.807C401.18 119.807 403.553 118.981 405.49 117.325C407.431 115.67 408.4 113.657 408.4 111.286C408.4 109.018 407.505 107.106 405.716 105.554C404.8 104.756 402.155 103.622 397.782 102.15C393.266 100.621 390.067 98.927 388.186 97.071C386.305 95.214 385.364 92.806 385.364 89.847C385.364 86.542 386.591 83.849 389.046 81.769C391.501 79.687 394.663 78.646 398.534 78.646Z" fill="white"/>
<path id="Vector_14" d="M88.808 158.124L91.64 164.64C91.708 164.804 91.772 164.882 91.831 164.877C91.88 164.877 91.968 164.736 92.095 164.455L92.212 164.183L93.828 160.335C94.522 158.685 94.87 157.621 94.87 157.147C94.87 156.985 94.833 156.87 94.76 156.803C94.686 156.737 94.536 156.682 94.31 156.637C94.035 156.583 93.9 156.516 93.905 156.434C93.91 156.342 93.991 156.297 94.149 156.297C94.183 156.297 94.255 156.299 94.363 156.305C94.727 156.325 94.946 156.333 95.02 156.333H95.323L95.656 156.326H95.84L96.468 156.319C96.566 156.319 96.616 156.362 96.616 156.448C96.616 156.519 96.564 156.571 96.461 156.607C96.107 156.74 95.84 157.025 95.658 157.462L95.459 157.941L91.799 166.537C91.697 166.777 91.598 166.897 91.5 166.897C91.398 166.897 91.294 166.775 91.187 166.529L87.454 157.854C87.277 157.455 87.117 157.176 86.975 157.018C86.832 156.862 86.638 156.76 86.393 156.717C86.138 156.667 85.987 156.633 85.94 156.612C85.893 156.59 85.87 156.549 85.87 156.492C85.87 156.395 85.939 156.348 86.076 156.348C86.116 156.348 86.186 156.352 86.289 156.362C86.373 156.372 86.621 156.377 87.034 156.377L87.733 156.384L88.226 156.377C88.33 156.377 88.487 156.367 88.698 156.349C88.796 156.337 88.865 156.332 88.904 156.332C89.037 156.332 89.103 156.378 89.103 156.47C89.103 156.537 89.054 156.589 88.956 156.628C88.754 156.702 88.628 156.765 88.577 156.816C88.525 156.868 88.499 156.958 88.499 157.086C88.499 157.3 88.602 157.646 88.808 158.124Z" fill="#937E64"/>
<path id="Vector_15" d="M106.89 157.54V160.519C106.89 160.747 106.911 160.883 106.953 160.93C106.994 160.977 107.121 161 107.332 161H108.466C108.982 161 109.39 160.971 109.689 160.912C109.954 160.856 110.126 160.785 110.204 160.697C110.283 160.608 110.354 160.401 110.418 160.078C110.443 159.955 110.506 159.894 110.606 159.899C110.702 159.904 110.749 159.971 110.749 160.098C110.749 160.132 110.747 160.186 110.742 160.26C110.698 160.736 110.676 161.171 110.676 161.563C110.676 161.863 110.691 162.16 110.72 162.455C110.73 162.554 110.735 162.625 110.735 162.668C110.735 162.791 110.687 162.853 110.592 162.853C110.486 162.853 110.423 162.799 110.403 162.691L110.359 162.484C110.3 162.155 110.183 161.931 110.007 161.812C109.83 161.694 109.531 161.635 109.11 161.635H107.486C107.245 161.635 107.085 161.66 107.004 161.709C106.923 161.759 106.883 161.856 106.883 162.005L106.89 162.248V164.971C106.89 165.39 106.965 165.651 107.115 165.755C107.264 165.858 107.643 165.91 108.251 165.91C110.178 165.91 111.416 165.474 111.965 164.602C112.02 164.518 112.076 164.475 112.131 164.469C112.222 164.464 112.267 164.528 112.267 164.661C112.267 164.978 112.087 165.359 111.729 165.801C111.297 166.331 110.752 166.596 110.094 166.596C109.952 166.596 109.76 166.586 109.519 166.566C108.582 166.477 107.806 166.434 107.192 166.434C106.333 166.434 105.726 166.463 105.373 166.522C105.186 166.556 105.059 166.574 104.99 166.574C104.833 166.574 104.754 166.52 104.754 166.414C104.754 166.334 104.818 166.275 104.946 166.242L105.226 166.16C105.579 166.061 105.756 165.717 105.756 165.125L105.764 164.645V158.397C105.764 157.692 105.686 157.217 105.532 156.973C105.377 156.729 105.076 156.607 104.629 156.607C104.487 156.607 104.415 156.561 104.415 156.47C104.415 156.334 104.526 156.268 104.747 156.268C104.869 156.268 105.034 156.28 105.241 156.305C105.943 156.383 106.787 156.423 107.774 156.423C108.373 156.423 108.903 156.412 109.365 156.393L110.411 156.341C110.701 156.332 110.877 156.322 110.941 156.312C111.074 156.291 111.172 156.282 111.236 156.282C111.398 156.282 111.479 156.353 111.479 156.497C111.479 156.54 111.472 156.597 111.456 156.665C111.442 156.734 111.422 156.931 111.398 157.253L111.368 157.688C111.343 157.973 111.318 158.151 111.293 158.222C111.268 158.292 111.213 158.331 111.128 158.335C111.033 158.341 110.985 158.267 110.985 158.114V157.922C110.985 157.765 110.956 157.614 110.897 157.472C110.804 157.249 110.615 157.103 110.331 157.029C110.047 156.955 109.525 156.918 108.765 156.918H107.611C107.307 156.918 107.111 156.957 107.023 157.033C106.934 157.109 106.89 157.278 106.89 157.54Z" fill="#937E64"/>
<path id="Vector_16" d="M129.766 159.214V165.402C129.766 165.959 129.753 166.297 129.729 166.418C129.704 166.538 129.636 166.596 129.523 166.591C129.449 166.586 129.392 166.565 129.353 166.526L129.191 166.334L122.982 159.216L122.909 159.135C122.879 159.107 122.845 159.091 122.806 159.091C122.712 159.091 122.666 159.201 122.666 159.423V164.434L122.659 164.746L122.681 165.271C122.715 165.595 122.798 165.82 122.931 165.943C123.063 166.066 123.324 166.156 123.712 166.216C123.874 166.236 123.955 166.298 123.955 166.404C123.955 166.501 123.903 166.549 123.8 166.549C123.731 166.549 123.658 166.544 123.579 166.533C123.525 166.523 123.311 166.509 122.938 166.488L122.187 166.453L121.833 166.466C121.642 166.466 121.46 166.477 121.288 166.5C121.161 166.518 121.07 166.527 121.016 166.527C120.889 166.527 120.82 166.48 120.81 166.388C120.805 166.316 120.873 166.256 121.016 166.208C121.429 166.065 121.707 165.875 121.852 165.635C121.997 165.398 122.069 165.011 122.069 164.48V159.456C122.069 158.603 121.934 157.932 121.664 157.441C121.394 156.952 121.004 156.672 120.493 156.603C120.361 156.583 120.294 156.529 120.294 156.437C120.294 156.345 120.348 156.3 120.456 156.3C120.481 156.3 120.52 156.302 120.574 156.307L120.876 156.316L121.37 156.33L121.487 156.322C121.605 156.318 121.696 156.316 121.76 156.316C121.883 156.316 122.005 156.386 122.128 156.529L128.904 164.222C129.012 164.345 129.081 164.404 129.11 164.4C129.16 164.394 129.186 164.347 129.191 164.259V160.605L129.199 159.609L129.11 157.91C129.061 157.492 128.94 157.195 128.745 157.021C128.552 156.845 128.202 156.716 127.696 156.632C127.554 156.609 127.483 156.548 127.483 156.452C127.483 156.36 127.554 156.315 127.696 156.315C127.76 156.315 127.863 156.321 128.006 156.335C128.344 156.37 128.798 156.388 129.368 156.388C129.672 156.388 129.915 156.374 130.097 156.344C130.254 156.316 130.374 156.3 130.458 156.3C130.586 156.3 130.655 156.353 130.664 156.455C130.669 156.518 130.62 156.565 130.517 156.595C130.218 156.669 130.02 156.792 129.924 156.965C129.828 157.137 129.781 157.459 129.781 157.931V158.73L129.766 159.214Z" fill="#937E64"/>
<path id="Vector_17" d="M146.64 157.154H144.57C144.354 157.154 144.218 157.183 144.161 157.242C144.105 157.302 144.077 157.447 144.077 157.679V164.927L144.084 165.216C144.109 165.792 144.431 166.134 145.049 166.242C145.221 166.271 145.307 166.327 145.307 166.408C145.307 166.514 145.238 166.568 145.1 166.568C145.041 166.568 144.921 166.551 144.739 166.523C144.645 166.508 144.424 166.501 144.074 166.501L143.536 166.493L142.96 166.501C142.753 166.501 142.578 166.509 142.436 166.523C142.155 166.551 141.991 166.568 141.941 166.568C141.794 166.568 141.72 166.514 141.72 166.409C141.72 166.333 141.801 166.284 141.963 166.265C142.341 166.215 142.597 166.111 142.729 165.95C142.862 165.79 142.928 165.503 142.928 165.089V157.761L142.92 157.569C142.92 157.391 142.895 157.278 142.843 157.229C142.791 157.179 142.673 157.155 142.486 157.155H140.534C140.137 157.155 139.848 157.235 139.669 157.395C139.49 157.554 139.351 157.856 139.253 158.298C139.208 158.49 139.142 158.585 139.054 158.579C138.966 158.574 138.921 158.509 138.921 158.38C138.921 158.277 138.951 158.089 139.01 157.815C139.083 157.461 139.12 157.169 139.12 156.939C139.12 156.712 139.146 156.565 139.198 156.494C139.249 156.424 139.358 156.387 139.526 156.387H147.457C147.727 156.387 147.89 156.416 147.947 156.476C148.004 156.535 148.032 156.709 148.032 156.997C148.032 157.287 148.044 157.497 148.069 157.631C148.093 157.797 148.108 157.918 148.113 157.99C148.118 158.136 148.066 158.217 147.958 158.225C147.87 158.23 147.811 158.154 147.782 157.996C147.718 157.647 147.615 157.42 147.472 157.314C147.329 157.208 147.052 157.154 146.64 157.154Z" fill="#937E64"/>
<path id="Vector_18" d="M165.244 162.207V158.386C165.244 157.771 165.156 157.325 164.979 157.047C164.802 156.769 164.503 156.61 164.08 156.571C163.938 156.557 163.867 156.503 163.867 156.412C163.867 156.306 163.916 156.256 164.014 156.261C164.121 156.267 164.278 156.286 164.484 156.321C164.67 156.351 164.892 156.365 165.152 156.365C165.701 156.365 166.038 156.357 166.166 156.343C166.337 156.328 166.445 156.322 166.489 156.322C166.582 156.322 166.629 156.365 166.629 156.452C166.629 156.522 166.577 156.582 166.474 156.625C166.175 156.748 165.981 156.92 165.892 157.142C165.804 157.364 165.76 157.782 165.76 158.396V162.051C165.76 163.396 165.492 164.429 164.957 165.153C164.618 165.611 164.133 165.976 163.502 166.25C162.871 166.521 162.198 166.659 161.48 166.659C160.646 166.659 159.894 166.497 159.227 166.172C158.559 165.848 158.071 165.407 157.761 164.852C157.412 164.21 157.238 163.377 157.238 162.348V158.598L157.223 158.176C157.223 157.649 157.151 157.286 157.006 157.087C156.86 156.889 156.571 156.756 156.134 156.691C156.001 156.672 155.934 156.622 155.934 156.541C155.934 156.425 156.028 156.367 156.215 156.367C156.337 156.367 156.507 156.372 156.723 156.382C156.949 156.397 157.113 156.404 157.216 156.404L157.783 156.396H158.343C158.402 156.396 158.539 156.386 158.756 156.367C158.937 156.353 159.062 156.345 159.131 156.345C159.244 156.345 159.301 156.383 159.301 156.46C159.301 156.551 159.222 156.611 159.065 156.641C158.78 156.704 158.59 156.829 158.494 157.014C158.398 157.198 158.35 157.529 158.35 158.005L158.365 158.492V162.21C158.365 163.479 158.562 164.384 158.955 164.925C159.51 165.692 160.442 166.076 161.749 166.076C162.919 166.076 163.794 165.755 164.374 165.113C164.954 164.468 165.244 163.501 165.244 162.207Z" fill="#937E64"/>
<path id="Vector_19" d="M180.585 161.405L182.618 164.409L182.854 164.763C183.482 165.686 184.062 166.163 184.592 166.199L184.827 166.215C184.916 166.22 184.958 166.255 184.953 166.32C184.948 166.394 184.838 166.463 184.625 166.522C184.411 166.582 184.17 166.613 183.9 166.613C183.458 166.613 183.061 166.492 182.71 166.248C182.359 166.004 182.002 165.606 181.638 165.056L179.804 162.25L179.701 162.087C179.584 161.886 179.392 161.785 179.127 161.785H178.147L177.985 161.813C177.926 161.848 177.897 161.927 177.897 162.051V164.363L177.904 164.658C177.904 165.084 177.925 165.373 177.967 165.529C178.008 165.684 178.108 165.824 178.265 165.947C178.476 166.115 178.803 166.221 179.245 166.266C179.421 166.285 179.512 166.34 179.516 166.431C179.526 166.527 179.445 166.576 179.273 166.576C179.204 166.576 179.06 166.564 178.838 166.544C178.637 166.522 178.325 166.511 177.903 166.511L177.196 166.503L176.813 166.51C176.646 166.51 176.445 166.522 176.209 166.547C176.018 166.566 175.885 166.576 175.812 166.576C175.689 166.576 175.628 166.525 175.628 166.425C175.628 166.353 175.689 166.305 175.812 166.281C176.204 166.207 176.462 166.029 176.585 165.744C176.708 165.462 176.769 164.902 176.769 164.07V158.76L176.754 157.991C176.754 157.221 176.486 156.793 175.951 156.704L175.605 156.651C175.448 156.622 175.37 156.565 175.37 156.478C175.37 156.377 175.453 156.327 175.62 156.327C175.659 156.327 175.831 156.337 176.135 156.356C176.312 156.372 176.531 156.378 176.791 156.378C177.017 156.378 177.402 156.361 177.947 156.326C178.34 156.302 178.686 156.289 178.986 156.289C180.115 156.289 180.967 156.503 181.542 156.929C182.116 157.355 182.403 157.991 182.403 158.832C182.404 159.941 181.798 160.799 180.585 161.405ZM178.421 161.245H179.255C179.9 161.245 180.406 161.066 180.775 160.711C181.144 160.356 181.329 159.87 181.329 159.252C181.329 158.536 181.078 157.946 180.576 157.485C180.074 157.023 179.435 156.793 178.657 156.793C178.367 156.793 178.166 156.841 178.056 156.937C177.945 157.035 177.889 157.207 177.889 157.459L177.897 157.704V160.711C177.897 160.944 177.927 161.091 177.989 161.151C178.05 161.214 178.194 161.245 178.421 161.245Z" fill="#937E64"/>
<path id="Vector_20" d="M195.33 157.54V160.519C195.33 160.747 195.351 160.883 195.393 160.93C195.435 160.977 195.561 161 195.772 161H196.907C197.423 161 197.831 160.971 198.13 160.912C198.396 160.856 198.568 160.785 198.646 160.697C198.724 160.608 198.795 160.401 198.859 160.078C198.884 159.955 198.947 159.894 199.047 159.899C199.144 159.904 199.191 159.971 199.191 160.098C199.191 160.132 199.189 160.186 199.183 160.26C199.14 160.736 199.118 161.171 199.118 161.563C199.118 161.863 199.133 162.16 199.162 162.455C199.172 162.554 199.178 162.625 199.178 162.668C199.178 162.791 199.129 162.853 199.034 162.853C198.928 162.853 198.865 162.799 198.846 162.691L198.801 162.484C198.742 162.155 198.625 161.931 198.449 161.812C198.271 161.694 197.972 161.635 197.553 161.635H195.928C195.688 161.635 195.528 161.66 195.446 161.709C195.366 161.759 195.326 161.856 195.326 162.005L195.333 162.248V164.971C195.333 165.39 195.407 165.651 195.558 165.755C195.707 165.858 196.086 165.91 196.695 165.91C198.622 165.91 199.859 165.474 200.408 164.602C200.464 164.518 200.519 164.475 200.574 164.469C200.666 164.464 200.711 164.528 200.711 164.661C200.711 164.978 200.531 165.359 200.173 165.801C199.74 166.331 199.195 166.596 198.538 166.596C198.396 166.596 198.204 166.586 197.963 166.566C197.025 166.477 196.25 166.434 195.636 166.434C194.778 166.434 194.17 166.463 193.817 166.522C193.63 166.556 193.504 166.574 193.434 166.574C193.278 166.574 193.198 166.52 193.198 166.414C193.198 166.334 193.262 166.275 193.391 166.242L193.67 166.16C194.024 166.061 194.199 165.717 194.199 165.125L194.208 164.645V158.397C194.208 157.692 194.13 157.217 193.977 156.973C193.821 156.729 193.52 156.607 193.073 156.607C192.932 156.607 192.86 156.561 192.86 156.47C192.86 156.334 192.971 156.268 193.192 156.268C193.313 156.268 193.479 156.28 193.686 156.305C194.387 156.383 195.231 156.423 196.218 156.423C196.817 156.423 197.348 156.412 197.809 156.393L198.856 156.341C199.145 156.332 199.321 156.322 199.385 156.312C199.518 156.291 199.615 156.282 199.68 156.282C199.842 156.282 199.923 156.353 199.923 156.497C199.923 156.54 199.916 156.597 199.901 156.665C199.886 156.734 199.866 156.931 199.842 157.253L199.813 157.688C199.788 157.973 199.762 158.151 199.737 158.222C199.713 158.292 199.657 158.331 199.573 158.335C199.477 158.341 199.43 158.267 199.43 158.114V157.922C199.43 157.765 199.401 157.614 199.341 157.472C199.248 157.249 199.059 157.103 198.776 157.029C198.491 156.955 197.969 156.918 197.21 156.918H196.056C195.752 156.918 195.556 156.957 195.468 157.033C195.374 157.109 195.33 157.278 195.33 157.54Z" fill="#937E64"/>
<path id="Vector_21" d="M229.731 157.243L229.967 159.014L229.988 159.2L229.967 159.272C229.942 159.317 229.904 159.342 229.856 159.346C229.797 159.351 229.71 159.248 229.592 159.037C228.672 157.427 227.426 156.621 225.854 156.621C224.6 156.621 223.612 157.008 222.891 157.779C222.168 158.55 221.807 159.604 221.807 160.941C221.807 162.479 222.209 163.736 223.012 164.712C223.815 165.687 224.848 166.175 226.112 166.175C226.85 166.175 227.573 165.977 228.286 165.582C229.001 165.186 229.493 164.708 229.768 164.145C229.897 163.883 229.995 163.75 230.063 163.745C230.141 163.741 230.18 163.788 230.18 163.887L230.174 163.969L230.145 164.132L229.975 165.036L229.944 165.171C229.926 165.299 229.811 165.431 229.6 165.569C228.465 166.293 227.215 166.655 225.85 166.655C224.27 166.655 222.995 166.184 222.028 165.245C221.061 164.306 220.577 163.069 220.577 161.534C220.577 160 221.077 158.723 222.079 157.709C223.081 156.692 224.339 156.185 225.85 156.185C226.885 156.185 227.838 156.419 228.707 156.887L229.002 157.042L229.119 157.094L229.244 157.137C229.269 157.137 229.307 157.118 229.355 157.077C229.462 157 229.537 156.961 229.576 156.961C229.655 156.963 229.708 157.056 229.731 157.243Z" fill="#937E64"/>
<path id="Vector_22" d="M244.235 162.61H241.567C241.204 162.61 240.977 162.64 240.889 162.699C240.801 162.759 240.682 162.956 240.535 163.292L240.053 164.378C239.834 164.876 239.725 165.247 239.725 165.488C239.725 165.72 239.784 165.887 239.899 165.991C240.014 166.095 240.241 166.183 240.581 166.257C240.727 166.286 240.804 166.345 240.81 166.431C240.814 166.513 240.746 166.553 240.603 166.553C240.55 166.553 240.466 166.55 240.353 166.544L239.65 166.503C239.414 166.492 239.142 166.486 238.834 166.486C238.693 166.486 238.582 166.489 238.504 166.497C238.254 166.524 238.117 166.538 238.092 166.538C237.959 166.538 237.893 166.492 237.893 166.401C237.893 166.321 237.936 166.268 238.018 166.242L238.291 166.161C238.389 166.132 238.521 166.013 238.689 165.804C238.855 165.594 238.994 165.376 239.101 165.15L239.314 164.662L243.099 156.232C243.163 156.084 243.236 156.009 243.314 156.009C243.392 156.009 243.459 156.081 243.513 156.225L246.679 164.358L246.841 164.757C247.073 165.354 247.263 165.725 247.415 165.87C247.567 166.015 247.878 166.13 248.343 166.214C248.495 166.242 248.57 166.303 248.564 166.394C248.56 166.476 248.492 166.517 248.359 166.517C248.314 166.517 248.22 166.512 248.08 166.501C247.824 166.477 247.369 166.464 246.717 166.464C246.035 166.464 245.608 166.48 245.436 166.509C245.332 166.529 245.256 166.538 245.207 166.538C245.08 166.538 245.016 166.487 245.016 166.387C245.016 166.311 245.077 166.259 245.2 166.236L245.429 166.184C245.675 166.134 245.798 165.966 245.798 165.681C245.798 165.419 245.648 164.9 245.347 164.12L244.98 163.143C244.876 162.872 244.796 162.715 244.738 162.672C244.677 162.632 244.509 162.61 244.235 162.61ZM244.323 161.421L243.167 158.499L243.108 158.343C243.047 158.186 242.985 158.105 242.915 158.1C242.882 158.095 242.843 158.142 242.798 158.24L241.362 161.437C241.298 161.575 241.264 161.666 241.264 161.71C241.264 161.837 241.377 161.901 241.604 161.901L241.803 161.908H244.028C244.274 161.908 244.395 161.847 244.395 161.724C244.395 161.69 244.383 161.633 244.36 161.554L244.323 161.421Z" fill="#937E64"/>
<path id="Vector_23" d="M258.839 157.554V163.716L258.831 164.433L258.854 165.054C258.907 165.65 259.129 165.996 259.516 166.095C259.786 166.169 259.989 166.206 260.127 166.206C260.273 166.206 260.35 166.249 260.356 166.337C260.366 166.462 260.28 166.524 260.098 166.524C260.014 166.524 259.85 166.513 259.604 166.494C259.446 166.485 259.192 166.48 258.838 166.48L258.315 166.464L257.741 166.472C257.452 166.472 257.233 166.482 257.087 166.501C256.894 166.526 256.755 166.538 256.667 166.538C256.538 166.538 256.476 166.49 256.476 166.394C256.476 166.303 256.556 166.244 256.718 166.219C257.101 166.16 257.363 165.945 257.503 165.572C257.642 165.198 257.712 164.524 257.712 163.55V159.072C257.712 158.039 257.651 157.385 257.528 157.113C257.405 156.841 257.098 156.676 256.606 156.622C256.475 156.612 256.411 156.562 256.417 156.472C256.421 156.356 256.517 156.298 256.702 156.298C256.796 156.298 256.923 156.311 257.079 156.334C257.388 156.38 257.643 156.401 257.845 156.401C258.159 156.401 258.615 156.374 259.214 156.32C259.525 156.296 259.777 156.282 259.974 156.282C260.999 156.282 261.833 156.53 262.474 157.025C263.115 157.519 263.435 158.165 263.435 158.963C263.435 159.928 263.042 160.688 262.257 161.243C261.667 161.656 261.044 161.864 260.386 161.864C260.075 161.864 259.794 161.83 259.534 161.761C259.276 161.695 259.153 161.622 259.163 161.546C259.173 161.486 259.22 161.456 259.302 161.456C259.341 161.456 259.392 161.464 259.448 161.478C259.561 161.512 259.743 161.53 259.993 161.53C260.698 161.53 261.263 161.335 261.686 160.945C262.109 160.555 262.321 160.036 262.321 159.39C262.321 158.644 262.044 158.027 261.485 157.537C260.926 157.049 260.217 156.805 259.36 156.805C259.165 156.805 259.03 156.842 258.956 156.916C258.884 156.988 258.847 157.129 258.847 157.336L258.839 157.554Z" fill="#937E64"/>
<path id="Vector_24" d="M274.364 158.539V164.075C274.364 164.766 274.407 165.221 274.489 165.444C274.589 165.695 274.71 165.873 274.854 165.975C274.999 166.079 275.225 166.154 275.536 166.199C275.782 166.232 275.903 166.292 275.903 166.379C275.903 166.495 275.827 166.554 275.676 166.554C275.602 166.554 275.508 166.545 275.395 166.529C275.243 166.507 274.983 166.497 274.614 166.497L273.548 166.48L272.679 166.532C272.536 166.546 272.419 166.554 272.324 166.554C272.193 166.554 272.127 166.502 272.127 166.402C272.127 166.316 272.203 166.261 272.356 166.236C272.729 166.172 272.969 166.043 273.077 165.847C273.186 165.653 273.239 165.243 273.239 164.617V158.287C273.239 157.676 273.171 157.266 273.03 157.053C272.889 156.84 272.592 156.698 272.135 156.623C271.983 156.596 271.903 156.537 271.899 156.45C271.893 156.344 271.965 156.291 272.112 156.291C272.151 156.291 272.196 156.294 272.245 156.299C272.604 156.344 273.079 156.365 273.675 156.365C274.038 156.365 274.349 156.357 274.611 156.34L275.103 156.299C275.197 156.294 275.259 156.291 275.287 156.291C275.422 156.291 275.486 156.337 275.486 156.43C275.486 156.516 275.423 156.58 275.297 156.623L274.912 156.771C274.546 156.909 274.364 157.498 274.364 158.539Z" fill="#937E64"/>
<path id="Vector_25" d="M291.532 157.154H289.464C289.247 157.154 289.11 157.183 289.054 157.242C288.997 157.302 288.97 157.447 288.97 157.679V164.927L288.978 165.216C289.001 165.792 289.324 166.134 289.943 166.242C290.115 166.271 290.201 166.327 290.201 166.408C290.201 166.514 290.133 166.568 289.994 166.568C289.935 166.568 289.814 166.551 289.633 166.523C289.539 166.508 289.319 166.501 288.969 166.501L288.43 166.493L287.854 166.501C287.647 166.501 287.473 166.509 287.331 166.523C287.05 166.551 286.886 166.568 286.835 166.568C286.689 166.568 286.614 166.514 286.614 166.409C286.614 166.333 286.696 166.284 286.858 166.265C287.235 166.215 287.491 166.111 287.624 165.95C287.757 165.79 287.823 165.503 287.823 165.089V157.761L287.815 157.569C287.815 157.391 287.79 157.278 287.737 157.229C287.686 157.179 287.567 157.155 287.38 157.155H285.429C285.033 157.155 284.743 157.235 284.564 157.395C284.386 157.554 284.246 157.856 284.148 158.298C284.103 158.49 284.037 158.585 283.949 158.579C283.861 158.574 283.816 158.509 283.816 158.38C283.816 158.277 283.847 158.089 283.906 157.815C283.978 157.461 284.015 157.169 284.015 156.939C284.015 156.712 284.04 156.565 284.093 156.494C284.144 156.424 284.253 156.387 284.421 156.387H292.353C292.623 156.387 292.785 156.416 292.843 156.476C292.9 156.535 292.927 156.709 292.927 156.997C292.927 157.287 292.939 157.497 292.964 157.631C292.987 157.797 293.003 157.918 293.009 157.99C293.013 158.136 292.96 158.217 292.853 158.225C292.765 158.23 292.707 158.154 292.677 157.996C292.613 157.647 292.511 157.42 292.366 157.314C292.222 157.208 291.944 157.154 291.532 157.154Z" fill="#937E64"/>
<path id="Vector_26" d="M305.925 162.61H303.257C302.894 162.61 302.669 162.64 302.581 162.699C302.491 162.759 302.374 162.956 302.226 163.292L301.744 164.378C301.525 164.876 301.418 165.247 301.418 165.488C301.418 165.72 301.475 165.887 301.59 165.991C301.705 166.095 301.932 166.183 302.272 166.257C302.42 166.286 302.497 166.345 302.501 166.431C302.507 166.513 302.437 166.553 302.296 166.553C302.241 166.553 302.159 166.55 302.046 166.544L301.341 166.503C301.105 166.492 300.833 166.486 300.525 166.486C300.384 166.486 300.273 166.489 300.195 166.497C299.945 166.524 299.808 166.538 299.785 166.538C299.65 166.538 299.586 166.492 299.586 166.401C299.586 166.321 299.627 166.268 299.711 166.242L299.982 166.161C300.082 166.132 300.214 166.013 300.38 165.804C300.546 165.594 300.685 165.376 300.792 165.15L301.007 164.662L304.792 156.232C304.855 156.084 304.927 156.009 305.005 156.009C305.083 156.009 305.15 156.081 305.204 156.225L308.372 164.358L308.534 164.757C308.764 165.354 308.956 165.725 309.106 165.87C309.258 166.016 309.569 166.13 310.036 166.214C310.186 166.242 310.261 166.303 310.257 166.394C310.251 166.476 310.183 166.517 310.05 166.517C310.007 166.517 309.913 166.512 309.771 166.501C309.515 166.477 309.06 166.464 308.41 166.464C307.726 166.464 307.299 166.48 307.127 166.509C307.023 166.529 306.949 166.538 306.898 166.538C306.771 166.538 306.707 166.487 306.707 166.387C306.707 166.311 306.768 166.259 306.891 166.236L307.12 166.184C307.366 166.134 307.489 165.966 307.489 165.681C307.489 165.419 307.339 164.9 307.04 164.12L306.671 163.143C306.567 162.872 306.487 162.715 306.429 162.672C306.366 162.632 306.2 162.61 305.925 162.61ZM306.013 161.421L304.857 158.499L304.798 158.343C304.739 158.186 304.675 158.105 304.605 158.1C304.572 158.095 304.533 158.142 304.488 158.24L303.052 161.437C302.988 161.575 302.956 161.666 302.956 161.71C302.956 161.837 303.069 161.901 303.294 161.901L303.493 161.908H305.718C305.964 161.908 306.087 161.847 306.087 161.724C306.087 161.69 306.073 161.633 306.05 161.554L306.013 161.421Z" fill="#937E64"/>
<path id="Vector_27" d="M320.522 164.476L320.53 164.736C320.53 165.328 320.585 165.677 320.698 165.786C320.811 165.895 321.18 165.949 321.805 165.949C322.725 165.949 323.522 165.839 324.198 165.62C324.874 165.401 325.307 165.112 325.493 164.752C325.563 164.62 325.63 164.553 325.7 164.553C325.778 164.553 325.815 164.602 325.811 164.7C325.79 165.024 325.629 165.379 325.331 165.767C324.907 166.3 324.224 166.569 323.274 166.569C323.116 166.569 322.934 166.56 322.729 166.546L321.932 166.487C321.463 166.453 320.971 166.435 320.45 166.435C319.845 166.435 319.339 166.464 318.932 166.524C318.758 166.548 318.621 166.564 318.518 166.569C318.395 166.574 318.334 166.53 318.334 166.439C318.334 166.362 318.4 166.304 318.533 166.265C318.875 166.162 319.103 166.011 319.219 165.81C319.336 165.612 319.395 165.275 319.395 164.802L319.403 164.461V157.851C319.403 157.195 319.137 156.812 318.606 156.705L318.276 156.639C318.157 156.615 318.098 156.567 318.098 156.494C318.098 156.385 318.182 156.328 318.348 156.328C318.459 156.328 318.616 156.338 318.811 156.358C319.145 156.386 319.52 156.402 319.936 156.402C320.385 156.402 320.795 156.39 321.163 156.365C321.351 156.355 321.456 156.351 321.479 156.351C321.598 156.351 321.655 156.386 321.655 156.457C321.655 156.563 321.585 156.634 321.442 156.667L321.184 156.726C320.743 156.834 320.522 157.277 320.522 158.05V164.476Z" fill="#937E64"/>
<path id="Vector_28" d="M29.0039 5.76212C29.0039 5.76212 30.4189 5.24612 31.6149 5.27312C30.4729 3.96712 28.5139 2.25312 29.0039 5.76212Z" fill="white"/>
<path id="Vector_29" d="M45.637 25.9161C42.558 25.4391 38.938 25.6661 34.88 26.8991C27.157 29.2461 21.387 34.8081 18.126 40.1231C15.037 41.8931 10.897 41.3531 8.92897 41.0991C6.39797 40.7731 2.88397 39.6321 3.12897 40.9381C3.37297 42.2441 10.397 45.5871 12.437 46.3221C14.477 47.0571 14.722 49.7501 15.13 52.3611C15.538 54.9731 13.661 56.7681 11.866 57.3391C10.071 57.9111 9.54597 58.7991 10.671 58.7991C13.368 58.7991 16.191 58.0741 17.578 57.5021C18.308 57.2031 19.598 57.6381 20.861 58.6021C21.378 59.1291 21.905 59.6331 22.432 60.1221C22.965 60.7821 23.437 61.5471 23.781 62.3991C25.168 65.8271 21.986 68.2751 20.925 69.3361C20.5 69.7611 23.027 69.5181 24.597 68.1931C27.038 66.1331 30.964 67.2501 33.003 70.1521C35.124 73.1721 36.022 76.4351 34.798 78.8021C33.574 81.1681 33.247 81.1681 35.859 81.3321C37.377 81.4271 38.496 82.4831 39.178 83.3531C40.794 88.2281 42.269 94.1651 43.367 101.326C47.121 125.807 49.224 122.291 49.224 122.291C49.224 122.291 47.512 111.935 47.611 96.5921C47.692 83.9821 46.973 64.1271 46.4 56.2431C46.917 55.5631 47.563 55.2991 48.427 55.2991C49.473 55.2991 47.433 54.5421 46.687 51.9021C49.727 45.0061 57.614 43.3811 56.914 36.0411C56.676 33.5361 55.381 31.1251 53.219 29.2571C53.249 27.7291 53.874 25.0191 55.2 22.3301C56.37 19.9581 55.445 19.6371 53.976 20.8611C52.742 21.8901 49.315 24.8131 45.637 25.9161Z" fill="white"/>
<path id="Vector_30" d="M35.043 5.3532C34.944 6.2492 34.421 6.4742 34.026 6.5162C32.974 5.6282 30.98 5.4532 28.923 6.2522C25.984 7.3952 26.964 10.2502 26.964 10.2502C26.964 10.2502 30.147 7.9932 34.798 8.0202C34.798 8.0202 35.641 7.4752 35.859 6.2792C36.077 5.0822 35.207 3.8842 35.043 5.3532Z" fill="white"/>
<path id="Vector_31" d="M22.701 21.251C22.289 21.743 21.714 22.188 20.952 22.164C19.265 22.109 16 19.008 17.143 21.566C18.121 23.756 21.168 25.223 22.024 25.601C22.258 29.101 24.716 30.412 25.685 30.981C28.321 28.935 31.4 27.221 34.88 26.164C38.939 24.931 42.559 24.704 45.638 25.181C45.85 25.117 46.058 25.028 46.27 24.953C48.091 21.096 43.895 14.63 40.348 14.168C37.9 14.331 30.555 14.575 23.373 19.472C23.099 20.103 22.886 20.688 22.701 21.251Z" fill="white"/>
<path id="Vector_32" d="M42.007 8.99924C41.478 10.5862 40.036 11.1372 39.343 11.3142C38.431 9.77124 36.299 8.73124 35.288 8.61924C32.461 8.46124 28.438 9.45324 25.521 11.8532C23.307 12.2212 21.444 9.42024 21.551 11.0122C21.639 12.3182 23.274 13.9182 23.932 14.5132C23.131 16.7792 23.636 18.3922 24.189 18.3302C24.189 18.3302 29.494 13.5972 39.613 13.6782C40.539 13.0822 41.082 13.2422 41.843 13.5692C41.843 13.5692 43.15 10.9022 43.313 9.43324C43.476 7.96524 42.715 6.87724 42.007 8.99924Z" fill="white"/>
</g>
</g>
</g>
</g>
</svg>
