<svg width="20" height="21" viewBox="0 0 20 21" fill="none" xmlns="http://www.w3.org/2000/svg">
<path d="M14.5925 17.6579H5.4065C4.48791 17.6579 3.73633 16.9758 3.73633 16.1421V4.77368C3.73633 3.51558 4.85535 2.5 6.24159 2.5H13.7574C15.1436 2.5 16.2626 3.51558 16.2626 4.77368V16.1421C16.2626 16.9758 15.5111 17.6579 14.5925 17.6579Z" stroke="#828282" stroke-miterlimit="10" stroke-linecap="round" stroke-linejoin="round"/>
<path d="M3.73674 4.18408L1.94727 5.86829" stroke="#828282" stroke-miterlimit="10" stroke-linecap="round" stroke-linejoin="round"/>
<path d="M1.94727 6.71051V5.86841" stroke="#828282" stroke-miterlimit="10" stroke-linecap="round" stroke-linejoin="round"/>
<path d="M16.2637 4.18408L18.0531 5.86829" stroke="#828282" stroke-miterlimit="10" stroke-linecap="round" stroke-linejoin="round"/>
<path d="M18.0527 6.71051V5.86841" stroke="#828282" stroke-miterlimit="10" stroke-linecap="round" stroke-linejoin="round"/>
<path d="M3.73633 11.7632H16.2626" stroke="#828282" stroke-miterlimit="10" stroke-linecap="round" stroke-linejoin="round"/>
<path d="M10.4473 11.3422C10.4473 9.94434 11.6462 8.81592 13.1315 8.81592C14.6167 8.81592 15.8157 9.94434 15.8157 11.3422" stroke="#828282" stroke-miterlimit="10" stroke-linecap="round" stroke-linejoin="round"/>
<path d="M5.97286 16.3947C6.46701 16.3947 6.8676 16.0176 6.8676 15.5526C6.8676 15.0875 6.46701 14.7104 5.97286 14.7104C5.47871 14.7104 5.07812 15.0875 5.07812 15.5526C5.07812 16.0176 5.47871 16.3947 5.97286 16.3947Z" fill="#828282"/>
<path d="M14.0256 16.3947C14.5197 16.3947 14.9203 16.0176 14.9203 15.5526C14.9203 15.0875 14.5197 14.7104 14.0256 14.7104C13.5314 14.7104 13.1309 15.0875 13.1309 15.5526C13.1309 16.0176 13.5314 16.3947 14.0256 16.3947Z" fill="#828282"/>
<path d="M14.4731 17.658H12.6836V18.5001H14.4731V17.658Z" stroke="#828282" stroke-miterlimit="10" stroke-linecap="round" stroke-linejoin="round"/>
<path d="M7.31486 17.658H5.52539V18.5001H7.31486V17.658Z" stroke="#828282" stroke-miterlimit="10" stroke-linecap="round" stroke-linejoin="round"/>
</svg>
