<svg width="20" height="21" viewBox="0 0 20 21" fill="none" xmlns="http://www.w3.org/2000/svg">
<path d="M2.41462 3.76975C2.27814 4.00852 2.29179 4.33599 2.3532 4.67709C2.96738 8.12221 4.63247 11.2057 6.97317 13.5525C9.31387 15.8924 12.4871 17.6457 15.8241 18.1506C16.1654 18.2051 16.4929 18.2256 16.7318 18.0891C16.8137 18.0414 16.9229 17.9527 16.9501 17.8163L17.4961 15.3603C17.537 15.1489 17.462 14.9306 17.2914 14.76C17.2095 14.6781 15.3465 14.0028 14.4661 13.5798C14.1045 13.4024 13.6814 13.5048 13.5039 13.7981L13.1627 14.3848C13.0467 14.5826 12.8488 14.7327 12.6304 14.7873C11.7706 15.0056 9.10914 12.5565 8.52908 11.9766C7.92856 11.3763 5.39679 8.6475 5.61516 7.78793C5.66976 7.5628 5.81989 7.37177 6.01779 7.25579C6.5296 6.95562 6.39312 7.03749 6.59785 6.91469C6.89811 6.73732 7.00047 6.31437 6.82304 5.95281C6.44088 5.16827 6.2157 4.43148 5.9632 3.59238C5.85402 3.22399 5.49915 2.93065 5.14429 3.00569C5.14429 3.00569 5.10335 3.01251 2.67394 3.55827C2.55111 3.57874 2.46239 3.68789 2.41462 3.76975Z" stroke="#828282" stroke-miterlimit="10"/>
<path d="M10.002 4.52124C12.9884 4.52124 15.405 6.93783 15.405 9.92432" stroke="#828282" stroke-miterlimit="10" stroke-linecap="round" stroke-linejoin="round"/>
<path d="M10.002 2.23389C14.2499 2.23389 17.6924 5.67633 17.6924 9.92429" stroke="#828282" stroke-miterlimit="10" stroke-linecap="round" stroke-linejoin="round"/>
</svg>
