<svg width="20" height="21" viewBox="0 0 20 21" fill="none" xmlns="http://www.w3.org/2000/svg">
<path d="M16.9226 8.36362C16.9226 12.1076 12.5226 17.0596 10.9457 18.7253C10.6457 19.0404 10.1303 19.0404 9.82265 18.7253C8.23803 17.0671 3.83802 12.1301 3.84571 8.36362C3.84571 4.86721 6.77648 2.03857 10.3842 2.03857C13.9919 2.03857 16.9226 4.87471 16.9226 8.36362Z" stroke="#828282" stroke-miterlimit="10" stroke-linecap="round" stroke-linejoin="round"/>
<path d="M10.3836 11.7078C12.0829 11.7078 13.4605 10.3302 13.4605 8.63088C13.4605 6.93154 12.0829 5.55396 10.3836 5.55396C8.68423 5.55396 7.30664 6.93154 7.30664 8.63088C7.30664 10.3302 8.68423 11.7078 10.3836 11.7078Z" stroke="#828282" stroke-miterlimit="10" stroke-linecap="round" stroke-linejoin="round"/>
</svg>
