<svg width="20" height="21" viewBox="0 0 20 21" fill="none" xmlns="http://www.w3.org/2000/svg">
<path d="M17.434 15.0652H2.56445V7.42263C2.56445 4.70263 4.89663 2.5 7.77663 2.5H12.2218C15.1018 2.5 17.434 4.70263 17.434 7.42263V15.0652V15.0652Z" stroke="#828282" stroke-miterlimit="10"/>
<path d="M17.434 15.0652H2.56445V15.4717C2.56445 16.4696 3.42533 17.2826 4.48185 17.2826H15.5166C16.5731 17.2826 17.434 16.4696 17.434 15.4717V15.0652Z" stroke="#828282" stroke-miterlimit="10"/>
<path d="M5.69548 17.2827L3.34766 19.5001" stroke="#828282" stroke-miterlimit="10" stroke-linecap="round" stroke-linejoin="round"/>
<path d="M14.3027 17.2827L16.6506 19.5001" stroke="#828282" stroke-miterlimit="10" stroke-linecap="round" stroke-linejoin="round"/>
<path d="M10.0001 6.19566C10.6484 6.19566 11.174 5.69928 11.174 5.08697C11.174 4.47465 10.6484 3.97827 10.0001 3.97827C9.35175 3.97827 8.82617 4.47465 8.82617 5.08697C8.82617 5.69928 9.35175 6.19566 10.0001 6.19566Z" stroke="#828282" stroke-miterlimit="10"/>
<path d="M6.66667 13.5H5.33333C4.6 13.5 4 13.1143 4 12.6429V8.35714C4 7.88571 4.6 7.5 5.33333 7.5H6.66667C7.4 7.5 8 7.88571 8 8.35714V12.6429C8 13.1143 7.4 13.5 6.66667 13.5Z" stroke="#828282" stroke-miterlimit="10"/>
<path d="M14.6667 13.5H13.3333C12.6 13.5 12 13.1143 12 12.6429V8.35714C12 7.88571 12.6 7.5 13.3333 7.5H14.6667C15.4 7.5 16 7.88571 16 8.35714V12.6429C16 13.1143 15.4 13.5 14.6667 13.5Z" stroke="#828282" stroke-miterlimit="10"/>
</svg>
